<?xml version="1.0" encoding="iso-8859-1"?>
<!-- Generator: Adobe Illustrator 18.0.0, SVG Export Plug-In . SVG Version: 6.00 Build 0)  -->
<!DOCTYPE svg PUBLIC "-//W3C//DTD SVG 1.1//EN" "http://www.w3.org/Graphics/SVG/1.1/DTD/svg11.dtd">
<svg version="1.1" id="Capa_1" xmlns="http://www.w3.org/2000/svg" xmlns:xlink="http://www.w3.org/1999/xlink" x="0px" y="0px"
	 viewBox="0 0 297 297" style="enable-background:new 0 0 297 297;" xml:space="preserve">
<g>
	<path d="M140.401,97.954c-13.824,0-26.609,7.308-33.701,19.134l34.601,34.601l37.035-24.689
		C173.766,110.035,158.186,97.954,140.401,97.954z"/>
	<path d="M262.367,170.596v-5.437l-58.757-29.378c-4.564-2.281-10.038-1.941-14.285,0.89l-34.185,22.79
		c11.051,0.366,21.314,0.934,30.599,1.607C222.17,163.706,249.308,168.153,262.367,170.596z"/>
	<path d="M76.747,107.137c-2.693-2.694-6.274-4.177-10.082-4.177c-3.809,0-7.389,1.483-10.082,4.177L0,163.719v6.905
		c46.115-8.767,90.662-11.573,128.638-11.596L76.747,107.137z"/>
	<path d="M281.681,87.98h-5.171v107.865c0,15.062-12.255,27.317-27.318,27.317H34.633v19.695c0,8.448,6.872,15.32,15.32,15.32
		h231.728c8.447,0,15.319-6.872,15.319-15.32V103.299C297,94.853,290.128,87.98,281.681,87.98z"/>
	<path d="M249.192,38.823H13.174C5.91,38.823,0,44.733,0,51.998v91.719l46.581-46.581c5.365-5.364,12.497-8.318,20.084-8.318
		s14.719,2.955,20.083,8.319l9.714,9.714c9.924-14.328,26.32-23.039,43.939-23.039c23.29,0,43.8,15.243,50.838,36.983
		c6.226-1.34,12.837-0.593,18.697,2.338l52.431,26.215v-97.35C262.367,44.733,256.457,38.823,249.192,38.823z M115.643,77.449
		c-1.381,1.38-3.191,2.071-5.001,2.071c-1.809,0-3.62-0.691-5.001-2.071l-7.11-7.11c-2.761-2.762-2.761-7.239,0-10.001
		c2.762-2.76,7.239-2.76,10.001,0l7.11,7.11C118.404,70.21,118.404,74.687,115.643,77.449z M157.527,68.259
		c0,3.906-3.166,7.071-7.071,7.071c-3.906,0-7.071-3.166-7.071-7.071V58.204c0-3.906,3.166-7.071,7.071-7.071
		c3.906,0,7.071,3.166,7.071,7.071V68.259z M200.703,78.363l-7.11,7.11c-1.381,1.38-3.191,2.071-5.001,2.071
		c-1.809,0-3.62-0.691-5.001-2.071c-2.761-2.762-2.761-7.239,0-10.001l7.11-7.11c2.762-2.76,7.239-2.76,10.001,0
		C203.464,71.124,203.464,75.601,200.703,78.363z"/>
	<path d="M262.367,195.845v-10.834c-25.98-4.968-139.951-23.857-262.367,0.012v10.821c0,7.264,5.91,13.174,13.174,13.174h236.018
		C256.457,209.02,262.367,203.109,262.367,195.845z"/>
</g>
<g>
</g>
<g>
</g>
<g>
</g>
<g>
</g>
<g>
</g>
<g>
</g>
<g>
</g>
<g>
</g>
<g>
</g>
<g>
</g>
<g>
</g>
<g>
</g>
<g>
</g>
<g>
</g>
<g>
</g>
</svg>
